<svg width="24" height="24" viewBox="0 0 24 24" fill="none" xmlns="http://www.w3.org/2000/svg">
<path d="M6.65986 10.9717C7.00134 10.3327 7.49824 9.86288 8.10927 9.59528C8.41432 9.4598 9.0096 9.32984 9.31992 9.32974C9.77536 9.3324 10.0803 9.41663 10.5126 9.65982C11.1394 10.0181 11.4407 10.413 11.6522 11.1715L11.7715 11.5992L11.991 11.61C12.1118 11.616 12.2206 11.618 12.234 11.6143C12.2474 11.6106 12.2884 11.4731 12.3254 11.3079C12.5263 10.4236 12.9315 9.61198 13.3793 9.19903C13.7498 8.85805 14.0163 8.70091 14.513 8.54082C15.4125 8.24678 16.1737 8.29745 16.9271 8.69598C17.7952 9.15618 18.3075 9.84162 18.5386 10.8647C18.9584 12.7068 18.1257 14.5091 16.1265 16.0749C15.1136 16.8687 14.4727 17.6632 14.3736 18.2526C14.3447 18.4335 14.3518 18.5108 14.4226 18.7647C14.4952 19.0254 14.5273 19.0885 14.6613 19.2456C14.8554 19.4759 15.1831 19.6546 15.5227 19.7076C15.7497 19.7452 15.8204 19.7399 16.1556 19.6608C16.4741 19.5864 16.5684 19.5493 16.7458 19.435C17.1347 19.1861 17.4121 18.8351 17.5511 18.4146C17.6579 18.0859 17.6725 17.8406 17.6078 17.4013C17.5423 16.9334 17.5721 16.7558 17.7486 16.5733C17.8996 16.416 18.2342 16.2831 18.4988 16.2741C18.8956 16.2607 19.3035 16.5071 19.4653 16.8545C19.867 17.7256 19.0328 18.9918 17.5123 19.8155C17.1572 20.0045 15.7029 20.4316 15.1701 20.501C13.0633 20.7751 10.846 20.1869 9.21531 18.9202C8.00915 17.9853 7.05491 16.6596 6.57058 15.2461C6.00018 13.5757 6.03156 12.1481 6.65986 10.9717Z" fill="#FDFCFD"/>
<path fill-rule="evenodd" clip-rule="evenodd" d="M15.8054 1.43551C15.8804 1.36779 16.0052 1.27178 16.0833 1.22839C16.2717 1.11464 16.6166 1.01847 16.84 1.01739C17.3905 1.01155 17.8788 1.30035 18.1756 1.8082C18.3072 2.03439 18.4535 2.559 18.4654 2.8474C18.5017 3.74119 18.0621 4.75325 17.2181 5.71243C16.5886 6.43172 15.8826 6.90227 14.9873 7.19872C14.4782 7.36588 13.9183 7.42838 13.2267 7.39432C12.9557 7.37987 12.7304 7.37427 12.7279 7.37854C12.7231 7.38709 12.5722 8.15302 12.392 9.08558C12.2117 10.0181 12.0569 10.796 12.0472 10.8131C12.0342 10.8311 11.9739 10.7183 11.9057 10.5644L11.7836 10.2816L11.8974 9.42154C11.9632 8.94582 12.0491 8.27006 12.0869 7.91381C12.1451 7.3718 12.1448 7.26743 12.0972 7.2519C12.0808 7.24708 11.9877 7.22528 11.8529 7.19372C11.7297 7.16487 11.5717 7.12787 11.4056 7.08822C11.0577 7.00517 10.1389 6.76438 9.36169 6.55253C5.83929 5.59359 4.83112 5.57579 3.82818 6.45685C3.59906 6.65758 3.52488 6.75389 3.34846 7.06597C3.22279 7.28827 3.12187 7.52168 3.09273 7.66305C2.926 8.43699 3.22379 9.14263 3.92502 9.63855C4.0471 9.72695 4.15338 9.82336 4.16269 9.85678C4.1953 9.97373 4.08259 10.4625 3.98164 10.6311C3.67193 11.164 2.91476 11.2311 2.48592 10.7673C1.81398 10.0399 1.97548 8.36711 2.86834 6.76769C3.36673 5.87607 3.9354 5.31417 4.68686 4.9678C5.02594 4.81203 5.75088 4.64231 6.09989 4.63863C6.70006 4.62974 7.4618 4.79908 8.37132 5.13609C8.63368 5.23579 8.8499 5.31235 8.84897 5.30901C8.84804 5.30567 8.7194 5.12906 8.56192 4.91369C8.33537 4.60593 8.2797 4.50981 8.29158 4.44888C8.30235 4.40986 8.39287 4.22977 8.49437 4.05021C8.79014 3.532 9.14684 3.24528 9.69169 3.08976C10.3513 2.90584 10.9512 3.01228 11.494 3.4191C12.0445 3.82741 12.4675 4.51614 12.593 5.2122C12.6382 5.4517 12.7192 6.15655 12.7265 6.33817C12.726 6.41394 12.7737 6.42947 13.2515 6.51233C14.0902 6.66019 14.5252 6.65415 15.1044 6.49264C15.5498 6.36847 15.8325 6.21762 16.1298 5.95104C16.4017 5.70957 16.6561 5.31455 16.7105 5.0437C16.7643 4.7838 16.7431 4.46199 16.661 4.25801C16.5554 3.99576 16.3752 3.81551 15.9621 3.56338C15.7572 3.43684 15.5553 3.29507 15.5136 3.24908C15.36 3.08662 15.2856 2.5996 15.3563 2.24497C15.4018 2.01982 15.6474 1.58042 15.8054 1.43551ZM11.7839 4.71756C11.5274 4.32813 11.0314 3.97304 10.6433 3.9012C10.4797 3.87117 10.3651 3.87432 10.1825 3.91805C9.84725 3.99711 9.71632 4.08403 9.58098 4.32344C9.48673 4.49017 9.47002 4.55965 9.48219 4.73272C9.49756 4.99492 9.61897 5.24917 9.83842 5.47968C10.083 5.7356 10.2319 5.81653 10.7635 5.98882C11.1998 6.13005 12.0376 6.33939 12.1013 6.32165C12.1381 6.31138 12.1379 5.85768 12.0993 5.57676C12.0606 5.29583 11.9308 4.94669 11.7839 4.71756Z" fill="#FDFCFD"/>
</svg>
