<svg width="588" height="400" viewBox="0 0 588 400" fill="none" xmlns="http://www.w3.org/2000/svg">
<mask id="mask0_468_396" style="mask-type:alpha" maskUnits="userSpaceOnUse" x="0" y="0" width="588" height="400">
<rect y="399.193" width="399.193" height="588" transform="rotate(-90 0 399.193)" fill="url(#paint0_radial_468_396)"/>
</mask>
<g mask="url(#mask0_468_396)">
<circle r="219.456" transform="matrix(-1.19249e-08 1 1 1.19249e-08 34.8833 389.563)" stroke="#504F57"/>
<mask id="path-3-inside-1_468_396" fill="white">
<path d="M473.705 -11.1484L473.705 380.852L637.038 380.852L637.038 -11.1484L473.705 -11.1484Z"/>
</mask>
<path d="M473.705 380.852L473.705 381.852L472.705 381.852L472.705 380.852L473.705 380.852ZM637.038 380.852L638.038 380.852L638.038 381.852L637.038 381.852L637.038 380.852ZM474.705 -11.1484L474.705 380.852L472.705 380.852L472.705 -11.1484L474.705 -11.1484ZM473.705 379.852L637.038 379.852L637.038 381.852L473.705 381.852L473.705 379.852ZM636.038 380.852L636.038 -11.1484L638.038 -11.1484L638.038 380.852L636.038 380.852Z" fill="#504F57" mask="url(#path-3-inside-1_468_396)"/>
<mask id="path-5-inside-2_468_396" fill="white">
<path d="M139.416 -11.1484L139.416 90.1182L584.772 90.1182L584.772 -11.1484L139.416 -11.1484Z"/>
</mask>
<path d="M139.416 90.1182L139.416 91.1182L138.416 91.1182L138.416 90.1182L139.416 90.1182ZM584.772 90.1182L585.772 90.1182L585.772 91.1182L584.772 91.1182L584.772 90.1182ZM140.416 -11.1484L140.416 90.1182L138.416 90.1182L138.416 -11.1484L140.416 -11.1484ZM139.416 89.1182L584.772 89.1182L584.772 91.1182L139.416 91.1182L139.416 89.1182ZM583.772 90.1182L583.772 -11.1484L585.772 -11.1484L585.772 90.1182L583.772 90.1182Z" fill="#504F57" mask="url(#path-5-inside-2_468_396)"/>
<line y1="-0.5" x2="781.846" y2="-0.5" transform="matrix(0.74371 -0.668503 -0.668503 -0.74371 10.9277 404.807)" stroke="#504F57" stroke-dasharray="4.36 4.36"/>
<line y1="-0.5" x2="392" y2="-0.5" transform="matrix(-7.54979e-08 -1 -1 7.54979e-08 362.639 380.852)" stroke="#504F57"/>
<circle r="265.189" transform="matrix(-1.19249e-08 1 1 1.19249e-08 -119.739 -63.4146)" stroke="#504F57"/>
<path d="M581.504 91.207C480.238 118.974 363.727 261.291 363.727 379.763" stroke="#504F57"/>
<circle r="222.178" transform="matrix(-1.19249e-08 1 1 1.19249e-08 362.094 92.8399)" stroke="#504F57"/>
<line y1="-0.5" x2="536.955" y2="-0.5" transform="matrix(0.683401 0.730043 0.730043 -0.683401 -34.8066 -7.88086)" stroke="#504F57" stroke-dasharray="4.36 4.36"/>
</g>
<defs>
<radialGradient id="paint0_radial_468_396" cx="0" cy="0" r="1" gradientUnits="userSpaceOnUse" gradientTransform="translate(199.596 693.193) rotate(90) scale(303.171 175.605)">
<stop stop-color="#D9D9D9"/>
<stop offset="1" stop-color="#D9D9D9" stop-opacity="0"/>
</radialGradient>
</defs>
</svg>
